<svg xmlns="http://www.w3.org/2000/svg" version="1.0" width="914.000000pt" height="248.000000pt" viewBox="0 0 914.000000 248.000000" preserveAspectRatio="xMidYMid meet">

<g transform="translate(0.000000,248.000000) scale(0.100000,-0.100000)" fill="#04325B" stroke="none">
<path d="M7837 2173 c-3 -5 -38 -164 -78 -355 -40 -192 -76 -348 -81 -348 -4 0 -15 17 -23 37 -20 48 -50 79 -100 106 -35 19 -56 22 -160 22 -111 0 -124 -2 -176 -28 -187 -91 -302 -314 -316 -613 -9 -188 25 -281 123 -340 47 -28 54 -29 175 -29 124 0 125 0 201 37 44 22 91 55 112 78 20 22 39 40 44 40 4 0 16 -33 27 -73 l20 -72 188 -3 c103 -1 187 1 187 6 0 4 72 347 160 760 88 414 160 759 160 767 0 13 -33 15 -229 15 -127 0 -232 -3 -234 -7z m-217 -790 l40 -38 -46 -210 c-41 -194 -47 -213 -77 -243 -61 -63 -119 -79 -153 -41 -16 18 -19 36 -17 123 2 122 36 267 84 357 52 97 105 113 169 52z" />
<path d="M1353 2128 c2 -7 11 -13 20 -12 10 0 33 1 52 2 58 3 39 22 -21 22 -40 0 -55 -3 -51 -12z" />
<path d="M1178 2123 c-17 -3 -28 -11 -28 -20 0 -12 7 -14 31 -9 17 3 40 6 50 6 11 0 19 7 19 15 0 15 -15 17 -72 8z" />
<path d="M1560 2118 c0 -18 88 -34 103 -19 12 12 -4 20 -57 27 -37 5 -46 4 -46 -8z" />
<path d="M8645 2094 c-124 -32 -195 -108 -195 -206 1 -111 80 -178 211 -178 118 0 200 43 239 127 43 92 13 191 -71 234 -39 20 -145 33 -184 23z" />
<path d="M1762 2074 c4 -23 85 -51 101 -35 8 8 1 14 -24 25 -69 28 -81 29 -77 10z" />
<path d="M991 2066 c-36 -13 -54 -36 -28 -36 23 0 87 29 87 40 0 13 -16 12 -59 -4z" />
<path d="M1956 2003 c-13 -13 -5 -23 35 -49 29 -18 44 -23 52 -15 12 12 14 11 -39 44 -23 14 -45 23 -48 20z" />
<path d="M802 1974 c-32 -19 -41 -29 -33 -37 14 -14 84 24 89 47 5 22 -6 20 -56 -10z" />
<path d="M637 1853 c-29 -26 -36 -38 -28 -46 8 -8 21 -2 48 26 51 50 32 69 -20 20z" />
<path d="M2124 1879 c-7 -12 53 -68 74 -69 21 0 13 17 -23 49 -40 35 -41 35 -51 20z" />
<path d="M2410 1750 l-35 -79 -25 25 c-19 18 -25 35 -25 66 0 54 -16 58 -37 8 -12 -30 -26 -45 -53 -56 -45 -19 -36 -38 15 -31 32 4 42 1 64 -22 l26 -27 -82 -37 c-72 -33 -80 -39 -67 -52 13 -13 28 -13 119 -1 l105 14 40 -39 c23 -21 48 -39 58 -39 29 0 19 34 -21 73 l-39 38 13 106 c13 102 9 133 -15 133 -4 0 -22 -36 -41 -80z" />
<path d="M1304 1789 c-337 -49 -600 -317 -646 -659 -36 -273 100 -571 331 -724 123 -82 226 -115 377 -123 229 -12 431 65 586 224 73 74 88 95 131 173 55 102 78 189 84 320 4 94 2 131 -15 201 -77 320 -320 545 -635 588 -89 12 -126 12 -213 0z m273 -113 c75 -20 157 -60 227 -110 98 -70 97 -69 40 -127 -68 -70 -109 -89 -189 -89 l-65 0 0 -34 c0 -26 -5 -36 -20 -41 -11 -4 -32 -17 -48 -29 -15 -13 -44 -26 -65 -29 -47 -7 -67 -23 -67 -51 0 -12 -7 -31 -15 -42 -25 -34 -18 -44 30 -44 38 0 47 4 54 23 14 36 36 50 51 32 10 -12 10 -18 0 -30 -10 -12 -10 -15 3 -15 9 0 18 8 21 18 11 35 49 61 73 51 19 -7 22 -15 21 -53 -1 -25 1 -48 4 -51 4 -4 21 0 40 9 50 23 110 46 118 46 6 0 30 -44 30 -55 0 -2 -20 -10 -45 -18 -43 -15 -45 -15 -60 6 -21 30 -30 14 -11 -20 8 -15 23 -43 32 -60 10 -18 22 -33 28 -33 6 0 22 -9 36 -20 l25 -19 31 30 c21 20 30 37 27 50 -5 16 0 19 28 18 49 0 104 -21 104 -39 0 -8 9 -28 19 -43 17 -25 17 -33 6 -70 -43 -148 -190 -321 -330 -389 -175 -86 -373 -92 -557 -16 -29 12 -53 24 -53 28 0 12 26 37 78 74 39 29 52 44 52 63 0 14 14 41 30 60 17 18 31 43 32 53 0 11 1 26 2 33 1 8 -19 14 -54 17 l-55 5 -3 42 c-3 37 -7 45 -37 59 -21 10 -38 27 -44 46 -9 24 -14 29 -28 22 -10 -4 -69 -10 -130 -12 -126 -4 -138 -13 -76 -53 30 -19 49 -46 88 -125 28 -55 60 -110 71 -121 20 -19 21 -25 12 -72 l-11 -51 -38 30 c-99 79 -191 228 -223 363 -5 23 -3 27 14 27 28 0 60 35 60 65 0 28 3 29 31 14 16 -8 25 -7 37 3 38 32 98 50 144 43 44 -7 45 -6 54 27 6 20 20 38 37 46 15 7 27 16 27 20 0 4 -16 29 -35 56 -19 27 -35 55 -35 62 0 44 -95 27 -102 -18 -2 -19 -10 -24 -40 -26 -56 -5 -88 21 -88 69 0 22 5 39 10 39 6 0 15 11 20 25 5 14 14 25 20 25 14 0 12 26 -5 60 l-15 28 72 67 c80 74 196 136 288 154 30 6 64 13 75 15 34 8 187 -3 242 -18z" />
<path d="M1110 1540 c0 -5 -17 -28 -37 -51 -22 -24 -33 -43 -26 -47 18 -12 45 -74 52 -120 9 -63 31 -75 71 -37 21 21 30 38 30 62 0 22 5 33 14 33 24 0 116 52 116 66 0 7 -25 33 -56 58 -51 42 -61 46 -110 46 -30 0 -54 -4 -54 -10z" />
<path d="M1507 1378 c-22 -48 -21 -58 3 -58 12 0 20 -7 20 -16 0 -14 3 -14 15 -4 10 8 15 30 15 64 -1 49 -1 50 -14 26 l-14 -24 -4 24 c-4 24 -6 23 -21 -12z" />
<path d="M1413 1260 c-36 -33 -27 -55 11 -27 10 7 17 21 15 31 -4 16 -6 15 -26 -4z" />
<path d="M1360 978 c-36 -49 -37 -68 -9 -94 12 -10 30 -38 40 -60 26 -58 41 -67 108 -67 l58 1 19 -102 c16 -88 23 -105 51 -134 26 -27 39 -33 65 -30 33 3 33 3 36 61 3 51 6 59 28 67 13 5 24 16 24 24 0 7 7 16 15 20 19 7 19 37 0 81 l-14 35 34 15 c45 18 44 29 -5 44 -24 7 -47 23 -57 39 -9 15 -34 46 -55 69 -21 24 -38 49 -38 58 0 13 -21 15 -135 15 l-135 0 -30 -42z" />
<path d="M492 1701 c-36 -45 -38 -51 -18 -51 17 0 66 56 66 76 0 24 -15 16 -48 -25z" />
<path d="M4720 1626 c-191 -40 -324 -134 -402 -282 -54 -102 -71 -186 -65 -314 9 -209 93 -327 272 -383 62 -20 92 -22 265 -22 216 0 267 9 389 68 188 90 304 314 288 557 -10 150 -50 234 -145 307 -78 59 -153 76 -357 79 -123 2 -201 -1 -245 -10z m256 -150 c43 -32 25 -328 -31 -502 -32 -101 -62 -153 -104 -181 -44 -30 -72 -29 -102 3 -21 23 -24 36 -27 120 -9 230 80 507 178 556 42 22 60 22 86 4z" />
<path d="M3160 1609 c0 -6 29 -222 65 -480 70 -507 77 -604 45 -656 -26 -43 -94 -63 -216 -63 -56 0 -95 -4 -99 -11 -8 -12 -34 -117 -35 -138 0 -11 32 -13 188 -9 174 5 193 7 272 35 141 48 243 130 332 265 35 53 598 1054 598 1063 0 3 -54 5 -119 5 l-119 0 -180 -337 -180 -336 -6 44 c-4 24 -17 159 -31 299 -14 140 -28 272 -31 293 l-6 37 -239 0 c-166 0 -239 -3 -239 -11z" />
<path d="M5640 1273 c-83 -387 -88 -440 -49 -518 47 -93 130 -135 269 -135 127 0 237 42 332 128 32 29 41 33 49 21 5 -8 9 -19 9 -25 0 -6 7 -34 15 -62 l16 -52 184 0 c166 0 184 2 189 18 5 19 206 960 206 967 0 3 -105 5 -233 5 l-233 0 -77 -357 c-81 -378 -84 -385 -149 -419 -15 -8 -43 -14 -62 -14 -53 0 -71 32 -63 113 5 48 105 542 134 655 l5 22 -233 0 -234 0 -75 -347z" />
<path d="M8385 1598 c-3 -13 -48 -228 -101 -478 -52 -250 -97 -463 -100 -472 -5 -17 11 -18 230 -18 130 0 236 4 236 8 0 7 186 876 205 960 l5 22 -235 0 -235 0 -5 -22z" />
<path d="M380 1530 c-22 -43 -25 -60 -10 -60 10 0 50 71 50 90 0 23 -21 8 -40 -30z" />
<path d="M310 1378 c0 -2 -7 -24 -15 -50 -12 -40 -12 -48 0 -48 14 0 35 49 35 81 0 11 -4 19 -10 19 -5 0 -10 -1 -10 -2z" />
<path d="M256 1163 c-11 -38 -11 -86 0 -90 13 -4 24 28 24 75 0 34 -15 44 -24 15z" />
<path d="M240 920 c0 -38 4 -50 15 -50 11 0 15 12 15 50 0 38 -4 50 -15 50 -11 0 -15 -12 -15 -50z" />
<path d="M264 733 c11 -61 16 -73 33 -73 11 0 14 6 9 26 -4 15 -10 39 -13 55 -3 16 -12 29 -20 29 -12 0 -14 -8 -9 -37z" />
<path d="M317 563 c-8 -15 34 -93 49 -93 11 0 14 6 8 23 -18 58 -45 91 -57 70z" />
<path d="M410 372 c0 -13 50 -82 60 -82 16 0 12 18 -12 55 -21 31 -48 47 -48 27z" />
</g>
</svg>