<svg xmlns="http://www.w3.org/2000/svg" version="1.0" width="984.000000pt" height="266.000000pt" viewBox="0 0 984.000000 266.000000" preserveAspectRatio="xMidYMid meet">

<g transform="translate(0.000000,266.000000) scale(0.100000,-0.100000)" fill="#04325B" stroke="none">
<path d="M1135 2320 c-214 -3 -396 -9 -403 -13 -43 -28 -300 -253 -314 -275 -17 -25 -18 -82 -18 -805 0 -801 0 -804 39 -834 12 -9 144 -12 541 -13 673 0 635 -9 870 190 239 201 264 231 289 348 17 80 14 373 -5 452 -26 114 -104 203 -196 225 -16 4 -28 9 -28 12 0 2 13 21 29 41 44 56 56 110 55 262 -1 115 -5 144 -24 194 -53 137 -177 208 -380 218 -36 2 -240 1 -455 -2z m566 -34 c84 -18 134 -44 180 -93 73 -77 89 -130 89 -293 0 -164 -14 -214 -75 -268 l-45 -40 46 -11 c97 -25 166 -79 199 -157 32 -78 46 -349 25 -483 -27 -162 -134 -258 -314 -281 -39 -5 -286 -10 -549 -10 -477 0 -508 2 -529 34 -4 6 -8 363 -8 794 0 769 0 782 20 802 19 19 33 20 458 20 337 0 452 -4 503 -14z" />
<path d="M974 2091 c-2 -2 -4 -280 -4 -618 0 -483 3 -613 13 -614 6 0 171 0 364 1 392 1 426 5 486 63 47 43 57 88 57 243 0 155 -14 215 -62 260 -39 36 -105 64 -152 64 -63 0 -70 10 -23 34 70 35 82 71 82 256 0 141 -2 159 -22 197 -54 101 -96 111 -451 115 -156 2 -286 1 -288 -1z m583 -30 c60 -12 110 -49 135 -101 19 -38 22 -62 23 -170 0 -154 -7 -190 -47 -229 -57 -56 -92 -61 -395 -61 l-273 0 0 285 0 285 258 0 c141 -1 276 -5 299 -9z m206 -618 c41 -19 52 -30 75 -80 25 -55 27 -66 27 -203 0 -155 -6 -180 -57 -227 -49 -45 -64 -47 -445 -51 l-363 -3 0 296 0 296 358 -3 c344 -3 359 -4 405 -25z" />
<path d="M1230 1790 c0 -107 2 -120 18 -121 89 -5 220 4 239 17 42 27 42 165 0 205 -18 17 -36 19 -139 19 l-118 0 0 -120z" />
<path d="M1230 1175 l0 -135 169 0 c219 0 216 -2 216 135 0 137 3 135 -216 135 l-169 0 0 -135z" />
<path d="M2948 2320 c-20 -4 -45 -13 -55 -21 -87 -67 -304 -253 -320 -273 -27 -34 -260 -650 -289 -765 -23 -90 -24 -106 -24 -463 l0 -369 25 -24 24 -25 219 0 219 0 164 136 c90 75 169 146 176 157 7 12 12 41 13 65 0 41 1 42 35 42 l35 0 0 -175 c0 -173 0 -176 25 -200 l24 -25 224 0 c216 0 225 1 253 22 145 111 314 262 323 290 7 20 11 141 11 337 0 444 3 431 -195 946 -89 233 -112 285 -141 313 l-34 32 -307 1 c-170 0 -321 2 -338 3 -16 2 -47 0 -67 -4z m706 -30 c14 -5 33 -21 42 -35 28 -44 254 -643 280 -744 23 -90 24 -106 24 -455 0 -297 -3 -366 -14 -382 -13 -18 -30 -19 -222 -22 -143 -2 -216 0 -235 9 -42 17 -51 65 -47 238 l3 146 -202 3 -202 2 -3 -181 c-4 -239 18 -221 -261 -217 -193 3 -210 4 -223 22 -11 16 -14 85 -14 382 0 438 -5 410 164 854 127 332 140 359 177 377 30 16 693 18 733 3z" />
<path d="M3136 2089 c-73 -12 -90 -40 -210 -349 -106 -273 -106 -273 -106 -602 0 -179 4 -278 10 -278 6 0 10 72 10 195 l0 195 450 0 450 0 0 -194 c0 -119 4 -197 10 -201 7 -4 10 91 10 278 0 247 -3 294 -19 358 -20 79 -175 455 -217 527 -40 68 -53 72 -212 75 -77 1 -156 -1 -176 -4z m322 -33 c37 -19 63 -70 165 -316 101 -243 109 -270 111 -378 l1 -83 -430 0 c-236 1 -439 1 -449 1 -18 0 -19 6 -13 89 6 102 28 173 138 450 51 128 83 194 105 217 l31 34 157 0 c116 0 164 -4 184 -14z" />
<path d="M3226 1845 c-8 -8 -22 -39 -30 -68 -9 -28 -33 -108 -54 -177 l-39 -125 175 -3 c96 -1 176 -1 178 1 6 6 -105 359 -117 373 -16 19 -94 18 -113 -1z" />
<path d="M4573 2319 c-16 -3 -36 -10 -45 -15 -32 -18 -309 -257 -318 -275 -6 -11 -10 -316 -10 -809 l0 -791 25 -24 24 -25 580 0 580 0 83 67 c180 145 260 217 269 240 15 40 11 328 -5 367 -20 48 -53 56 -243 56 l-165 0 104 86 c56 48 108 96 115 108 8 14 12 76 13 187 0 148 -2 169 -19 190 l-19 24 101 85 c56 47 107 96 114 110 16 31 18 308 3 361 -6 20 -20 41 -33 48 -18 9 -158 13 -575 14 -303 1 -564 -1 -579 -4z m1145 -35 c21 -15 22 -20 22 -199 0 -179 -1 -184 -22 -199 -19 -14 -70 -16 -355 -16 l-333 0 0 -90 0 -90 243 0 c133 0 247 -4 254 -8 25 -16 33 -68 33 -208 0 -141 -1 -146 -25 -169 l-24 -25 -241 0 -240 0 0 -100 0 -100 334 0 c303 0 336 -2 355 -17 20 -17 21 -28 22 -198 1 -173 0 -180 -21 -197 -21 -17 -62 -18 -590 -18 -544 0 -569 1 -591 19 l-24 19 0 787 0 787 24 19 c22 18 47 19 590 19 497 0 569 -2 589 -16z" />
<path d="M4768 2076 c-2 -11 -4 -290 -4 -619 l1 -598 385 0 c249 1 386 4 388 11 3 7 -125 10 -372 10 l-376 0 0 295 0 295 280 0 c242 0 280 2 280 15 0 13 -38 15 -280 15 l-280 0 0 285 0 285 375 0 c243 0 375 4 375 10 0 6 -130 10 -367 11 -203 0 -375 2 -385 4 -10 2 -18 -5 -20 -19z" />
<path d="M6330 2320 c-30 -3 -62 -9 -70 -14 -32 -20 -302 -250 -316 -270 -12 -17 -14 -137 -14 -814 l0 -793 25 -24 24 -25 218 0 c190 0 222 2 243 17 74 51 323 269 331 290 5 13 9 47 9 74 l0 51 25 -30 c24 -29 25 -34 25 -191 0 -159 1 -162 25 -186 l24 -25 219 0 219 0 39 29 c97 72 300 248 311 271 10 19 13 195 13 798 0 834 1 821 -52 838 -27 8 -419 8 -447 -1 -11 -3 -82 -58 -158 -121 -75 -63 -140 -114 -145 -114 -4 0 -46 45 -94 101 -48 55 -103 109 -123 119 -28 14 -65 19 -156 22 -66 1 -145 1 -175 -2z m322 -43 c20 -12 136 -137 259 -277 122 -140 226 -256 230 -258 5 -2 9 114 9 257 0 248 1 262 20 281 19 19 33 20 233 20 205 0 215 -1 233 -21 18 -20 19 -48 19 -806 l0 -785 -24 -19 c-21 -17 -41 -19 -232 -19 -269 0 -249 -16 -249 199 l0 160 -52 64 c-181 223 -334 406 -340 406 -5 1 -8 -177 -8 -394 0 -382 -1 -396 -20 -415 -19 -19 -33 -20 -229 -20 -191 0 -211 2 -232 19 l-24 19 0 785 c0 758 1 786 19 806 18 20 29 21 185 21 154 0 169 -2 203 -23z" />
<path d="M6497 2093 c-12 -11 -8 -1245 3 -1238 6 4 10 219 10 613 l0 607 34 -35 c19 -19 217 -240 440 -490 l406 -455 0 -117 c0 -67 4 -119 10 -123 11 -7 11 -5 10 700 0 264 0 495 0 513 0 20 -4 31 -10 27 -6 -4 -10 -177 -10 -486 l0 -480 -406 458 c-468 528 -467 527 -487 506z" />
<path d="M8655 2318 c-213 -12 -277 -43 -519 -250 -161 -137 -184 -160 -217 -221 -20 -38 -42 -94 -48 -125 -7 -35 -11 -203 -11 -467 0 -378 2 -418 20 -489 50 -195 171 -316 366 -366 71 -18 112 -20 518 -20 399 0 444 2 466 17 75 51 323 268 331 290 12 33 12 774 -1 808 -18 46 -59 55 -267 55 -103 0 -204 -5 -223 -10 -21 -7 -96 -63 -190 -144 l-155 -134 -3 156 c-1 85 0 157 3 160 4 4 191 11 317 12 19 0 70 37 191 138 91 75 170 147 176 160 7 14 11 92 11 193 0 184 -9 223 -53 234 -33 9 -585 11 -712 3z m721 -39 c17 -19 19 -38 19 -199 0 -159 -2 -180 -19 -198 -17 -20 -30 -21 -318 -24 l-300 -3 -29 -33 -29 -32 0 -325 0 -324 24 -28 c24 -28 26 -28 156 -32 102 -2 134 0 141 10 4 7 8 99 8 203 0 251 -21 231 244 231 111 0 214 -3 229 -8 18 -5 30 -17 35 -35 5 -15 8 -200 8 -410 l0 -384 -24 -20 c-24 -19 -38 -19 -485 -16 -436 4 -465 5 -539 26 -148 41 -239 117 -289 240 -23 56 -23 64 -26 522 -2 323 0 483 8 525 24 124 93 216 204 270 114 57 172 63 592 64 365 1 371 1 390 -20z" />
<path d="M8710 2089 c-114 -8 -167 -26 -212 -71 -67 -67 -69 -88 -66 -570 l3 -423 25 -45 c29 -51 101 -94 185 -109 28 -5 185 -11 350 -12 l300 -2 0 226 c0 145 -4 227 -10 227 -6 0 -11 -80 -13 -216 l-2 -216 -308 4 c-393 6 -421 14 -486 133 -21 39 -21 49 -21 465 0 467 0 463 62 522 58 56 92 61 396 66 202 3 277 7 277 15 0 13 -325 17 -480 6z" />
</g>
</svg>