<svg xmlns="http://www.w3.org/2000/svg" version="1.0" width="994.000000pt" height="192.000000pt" viewBox="0 0 994.000000 192.000000" preserveAspectRatio="xMidYMid meet">

<g transform="translate(0.000000,192.000000) scale(0.100000,-0.100000)" fill="#04325B" stroke="none">
<path d="M675 1448 c-3 -7 -4 -263 -3 -568 l3 -555 92 -3 c166 -5 306 51 426 169 124 123 180 293 157 476 -28 220 -186 408 -399 473 -76 24 -268 29 -276 8z" />
<path d="M622 890 c2 -358 6 -550 13 -550 7 0 11 192 13 550 2 486 0 550 -13 550 -13 0 -15 -64 -13 -550z" />
<path d="M577 1423 c-12 -11 -8 -1073 3 -1073 7 0 10 187 10 540 0 297 -1 540 -3 540 -2 0 -7 -3 -10 -7z" />
<path d="M3992 1400 c-118 -31 -243 -102 -317 -180 l-30 -31 -5 103 -5 103 -42 3 -43 3 0 -510 0 -511 45 0 45 0 0 354 0 354 58 57 c142 139 307 205 480 192 42 -3 87 -9 100 -13 20 -6 22 -3 22 39 0 38 -3 46 -22 51 -49 13 -214 5 -286 -14z" />
<path d="M523 1403 c-10 -4 -13 -115 -13 -508 0 -434 2 -504 15 -515 13 -11 15 47 15 509 0 286 -1 521 -2 520 -2 0 -9 -3 -15 -6z" />
<path d="M2500 1404 c-58 -9 -149 -26 -212 -41 l-68 -15 0 -55 c0 -49 2 -54 18 -48 143 58 281 85 439 85 203 0 356 -49 412 -134 20 -31 27 -54 29 -111 l4 -73 -103 -6 c-308 -20 -591 -74 -722 -136 -183 -88 -232 -274 -105 -400 145 -145 556 -143 891 4 l37 16 0 -55 0 -55 45 0 46 0 -3 393 c-3 379 -4 393 -24 432 -77 143 -237 206 -516 204 -79 -1 -154 -3 -168 -5z m620 -643 l0 -170 -29 -20 c-48 -34 -119 -61 -251 -93 -107 -27 -144 -31 -255 -32 -145 0 -221 15 -286 58 -50 33 -70 66 -76 120 -14 117 98 194 355 245 119 24 364 53 505 59 l37 2 0 -169z" />
<path d="M4845 1394 c-97 -19 -239 -91 -302 -153 -64 -63 -97 -120 -123 -212 -80 -290 84 -562 386 -639 179 -46 400 -35 589 28 l110 37 3 53 c2 28 1 52 -2 52 -2 0 -35 -16 -73 -35 -141 -71 -351 -100 -528 -71 -182 30 -305 108 -367 234 -29 59 -33 77 -36 170 -9 232 79 364 293 439 76 26 90 28 250 28 210 0 264 -14 458 -113 4 -2 7 21 7 51 l0 55 -87 31 c-49 17 -123 38 -166 46 -98 19 -316 18 -412 -1z" />
<path d="M8784 1395 c-45 -7 -113 -20 -153 -30 l-71 -17 0 -53 0 -53 84 28 c122 42 233 60 360 60 185 0 312 -31 382 -93 48 -42 64 -77 71 -156 l6 -68 -104 -7 c-344 -23 -608 -74 -746 -145 -163 -83 -202 -268 -83 -391 107 -110 342 -138 640 -77 97 20 144 36 278 94 9 4 12 -10 12 -51 l0 -56 45 0 45 0 0 368 c0 439 -1 445 -88 532 -63 62 -148 101 -264 120 -85 13 -314 11 -414 -5z m676 -635 l0 -170 -38 -24 c-49 -31 -153 -68 -272 -96 -123 -30 -335 -34 -421 -7 -161 49 -222 183 -128 283 33 35 130 80 224 104 131 33 423 72 598 79 l37 1 0 -170z" />
<path d="M5660 1395 c0 -3 114 -232 252 -510 l253 -505 70 0 70 0 253 503 c139 276 252 506 252 510 0 4 -21 7 -47 5 l-48 -3 -239 -475 -239 -475 -238 478 -239 477 -50 0 c-28 0 -50 -2 -50 -5z" />
<path d="M7030 890 l0 -510 45 0 45 0 0 510 0 510 -45 0 -45 0 0 -510z" />
<path d="M7327 1393 c-4 -3 -7 -24 -7 -45 l0 -38 230 0 230 0 0 -465 0 -465 45 0 45 0 0 465 0 465 236 0 235 0 -3 43 -3 42 -501 3 c-275 1 -504 -1 -507 -5z" />
<path d="M473 1373 c-10 -4 -13 -108 -13 -476 0 -427 5 -516 25 -496 3 3 4 224 3 491 -2 382 -6 484 -15 481z" />
<path d="M422 1338 c-9 -9 -12 -122 -12 -449 0 -376 2 -438 15 -449 13 -11 15 40 15 449 0 253 -1 461 -3 461 -2 0 -8 -5 -15 -12z" />
<path d="M372 1288 c-9 -9 -12 -111 -12 -399 0 -331 2 -388 15 -399 13 -11 15 34 15 399 0 226 -1 411 -3 411 -2 0 -8 -5 -15 -12z" />
<path d="M316 1224 c-3 -9 -6 -161 -6 -339 0 -274 2 -324 15 -335 13 -11 15 28 15 339 0 319 -5 385 -24 335z" />
<path d="M270 1151 c-6 -12 -10 -113 -10 -258 0 -195 3 -243 15 -259 13 -17 14 12 15 259 0 152 -2 277 -5 277 -2 0 -9 -9 -15 -19z" />
<path d="M223 1013 c-11 -43 -7 -225 5 -253 8 -19 11 9 11 128 1 83 -1 152 -4 152 -2 0 -8 -12 -12 -27z" />
</g>
</svg>