<?xml version="1.0" standalone="no"?>
<!DOCTYPE svg PUBLIC "-//W3C//DTD SVG 20010904//EN"
 "http://www.w3.org/TR/2001/REC-SVG-20010904/DTD/svg10.dtd">
<svg version="1.0" xmlns="http://www.w3.org/2000/svg"
 width="820.000000pt" height="218.000000pt" viewBox="0 0 820.000000 218.000000"
 preserveAspectRatio="xMidYMid meet">

<g transform="translate(0.000000,218.000000) scale(0.100000,-0.100000)"
fill="#000000" stroke="none">
<path d="M1235 1942 c-118 -57 -244 -189 -314 -330 l-32 -63 20 -65 c11 -35
23 -94 27 -129 4 -36 12 -69 19 -75 8 -7 29 -7 64 0 72 13 91 26 91 58 1 15 7
38 14 51 18 33 91 79 154 97 48 14 57 22 89 71 78 122 115 252 94 329 -16 58
-41 77 -109 81 -47 3 -67 -1 -117 -25z"/>
<path d="M495 1833 c-84 -90 -68 -314 36 -513 59 -113 65 -118 152 -141 43
-11 103 -31 134 -44 30 -14 57 -25 59 -25 9 0 35 65 43 105 8 40 6 46 -15 60
-53 35 -72 141 -44 245 12 45 -1 78 -70 180 -71 105 -149 160 -224 160 -36 0
-50 -5 -71 -27z"/>
<path d="M2653 1675 c-208 -48 -368 -209 -418 -420 -70 -293 118 -602 407
-670 123 -29 229 -14 336 47 67 38 152 120 152 147 0 12 -3 21 -6 21 -3 0 -29
-21 -58 -47 -28 -25 -80 -60 -116 -77 -59 -28 -74 -31 -160 -31 -105 1 -158
18 -229 75 -170 134 -223 458 -110 671 63 118 169 198 291 220 123 22 217 -16
296 -121 19 -25 38 -46 43 -48 10 -4 13 231 3 241 -4 3 -15 -5 -26 -18 -24
-31 -55 -32 -134 -5 -77 27 -192 33 -271 15z"/>
<path d="M3277 1684 c-3 -3 6 -16 21 -29 l27 -23 6 -399 c6 -443 8 -460 74
-546 25 -32 55 -55 102 -79 65 -32 73 -33 183 -33 103 0 121 3 170 26 77 36
124 80 157 147 l28 57 5 407 5 407 28 28 c15 16 27 32 27 36 0 10 -258 8 -264
-2 -3 -5 1 -11 9 -14 7 -3 21 -20 30 -37 14 -27 15 -81 13 -444 l-3 -412 -28
-42 c-66 -100 -222 -120 -313 -40 -71 63 -69 46 -69 510 l0 417 28 28 c15 16
27 32 27 36 0 9 -254 9 -263 1z"/>
<path d="M4260 1680 c0 -6 7 -13 15 -17 43 -16 45 -38 45 -542 l0 -480 -31
-36 -31 -35 137 0 137 0 -31 35 -31 36 0 189 0 189 33 5 c17 3 48 7 67 9 l35
5 150 -211 c83 -116 163 -220 178 -231 23 -17 47 -22 133 -24 70 -3 104 0 104
7 0 6 -6 11 -13 11 -38 0 -96 64 -232 255 -80 112 -148 210 -150 217 -4 9 13
20 47 31 29 10 84 39 121 64 134 90 180 217 123 338 -49 104 -153 169 -298
185 -115 13 -508 13 -508 0z m487 -84 c116 -31 166 -92 166 -201 0 -135 -97
-228 -289 -274 -43 -11 -96 -22 -116 -25 l-38 -5 0 258 c0 142 3 261 8 266 10
11 208 -3 269 -19z"/>
<path d="M5320 1683 c0 -4 12 -20 28 -36 l27 -28 3 -452 c2 -249 0 -472 -3
-496 -4 -26 -16 -53 -31 -68 -13 -13 -24 -26 -24 -28 0 -3 167 -5 370 -5 l370
0 0 28 c0 16 2 65 5 108 6 80 2 80 -26 5 -24 -65 -47 -71 -291 -71 l-218 0 0
246 0 245 174 -3 c168 -3 175 -4 200 -27 14 -13 31 -40 37 -60 24 -75 29 -52
28 125 l0 179 -28 -60 c-19 -41 -37 -64 -55 -73 -18 -8 -83 -12 -191 -12
l-165 0 0 210 0 210 213 0 c257 0 271 -4 302 -90 24 -67 29 -46 18 75 l-8 80
-367 3 c-203 1 -368 -1 -368 -5z"/>
<path d="M6226 1681 c-3 -4 -8 -35 -11 -67 -3 -33 -8 -77 -11 -99 -6 -47 8
-38 26 17 21 67 46 78 181 78 l119 0 0 -491 0 -491 -31 -29 -31 -29 140 0 140
0 -29 29 -29 29 0 491 0 491 119 0 c136 0 163 -12 181 -80 14 -53 32 -62 26
-13 -3 21 -8 68 -12 106 l-6 67 -383 0 c-211 0 -386 -4 -389 -9z"/>
<path d="M7318 1664 c17 -14 32 -33 32 -42 0 -8 -70 -229 -156 -491 -138 -421
-160 -478 -188 -505 -17 -17 -40 -36 -51 -43 -16 -10 3 -12 100 -12 l120 0
-27 20 c-36 27 -36 51 3 166 l31 93 247 0 248 0 32 -102 c17 -57 31 -109 31
-116 0 -7 -12 -24 -26 -37 l-27 -25 159 0 159 1 -38 23 c-21 13 -44 32 -52 42
-8 10 -91 252 -185 537 l-171 517 -137 0 -137 0 33 -26z m224 -409 l105 -320
-215 -3 c-118 -1 -217 0 -219 2 -3 2 44 151 103 330 60 179 111 322 115 318 4
-4 54 -151 111 -327z"/>
<path d="M1273 1418 c-43 -41 -93 -85 -110 -97 -31 -21 -32 -24 -19 -49 8 -15
30 -42 50 -61 32 -31 38 -33 61 -23 62 28 142 3 221 -70 l47 -43 101 1 c130 1
229 29 286 81 32 28 40 42 40 70 0 90 -93 174 -249 224 -79 26 -118 32 -223
36 l-127 6 -78 -75z"/>
<path d="M390 1178 c-66 -9 -160 -46 -192 -75 -25 -23 -38 -77 -27 -115 12
-45 74 -105 144 -140 99 -51 177 -69 317 -75 l127 -6 81 76 c45 42 94 84 111
94 36 21 36 27 3 74 -36 52 -69 73 -93 59 -31 -16 -98 -12 -139 9 -20 10 -57
37 -82 59 -41 36 -51 40 -115 44 -38 3 -99 2 -135 -4z"/>
<path d="M1217 1115 c-9 -19 -20 -53 -23 -75 -6 -36 -3 -43 21 -62 53 -42 68
-122 42 -225 -14 -51 -13 -53 19 -113 80 -150 182 -240 271 -240 39 0 54 5 71
23 79 84 67 312 -28 502 -58 118 -73 133 -155 154 -38 10 -99 30 -134 45 -36
14 -65 26 -66 26 -1 0 -9 -16 -18 -35z"/>
<path d="M1063 973 c-40 -12 -53 -20 -53 -35 0 -66 -71 -136 -167 -164 -45
-13 -60 -24 -88 -62 -58 -80 -98 -186 -103 -278 -4 -79 -4 -80 28 -112 28 -29
38 -32 89 -32 138 0 329 162 427 362 l27 57 -20 73 c-12 40 -24 100 -28 133
-10 81 -18 86 -112 58z"/>
</g>
</svg>
