<?xml version="1.0" standalone="no"?>
<!DOCTYPE svg PUBLIC "-//W3C//DTD SVG 20010904//EN"
 "http://www.w3.org/TR/2001/REC-SVG-20010904/DTD/svg10.dtd">
<svg version="1.0" xmlns="http://www.w3.org/2000/svg"
 width="1142.000000pt" height="280.000000pt" viewBox="0 0 1142.000000 280.000000"
 preserveAspectRatio="xMidYMid meet">

<g transform="translate(0.000000,280.000000) scale(0.100000,-0.100000)"
fill="#000000" stroke="none">
<path d="M770 2530 c-258 -39 -484 -207 -592 -441 -72 -154 -78 -221 -75 -744
3 -410 5 -445 24 -516 46 -163 145 -318 263 -410 17 -13 41 -32 52 -42 12 -9
27 -17 34 -17 7 0 14 -4 16 -8 4 -11 112 -62 131 -62 7 0 17 -3 21 -7 3 -4 12
-8 19 -9 7 -2 23 -5 37 -9 86 -19 198 -24 555 -24 444 1 525 8 650 58 137 55
244 137 339 261 40 52 112 180 101 180 -3 0 1 14 10 30 9 17 13 30 11 30 -3 0
2 19 11 43 14 36 17 105 21 477 3 300 0 464 -8 529 -21 164 -80 299 -185 421
-55 64 -143 140 -161 140 -7 0 -14 3 -16 8 -5 12 -130 70 -203 93 -68 22 -83
23 -535 25 -256 1 -490 -2 -520 -6z m915 -140 c39 -5 80 -11 93 -14 12 -3 31
-8 43 -11 12 -2 28 -10 37 -17 8 -7 17 -12 19 -10 5 4 64 -28 113 -62 113 -79
200 -203 246 -351 17 -55 19 -98 19 -535 0 -352 -3 -483 -12 -505 -7 -16 -15
-43 -17 -59 -10 -59 -96 -197 -165 -264 -59 -58 -165 -119 -257 -148 l-77 -25
-466 0 c-388 0 -477 3 -534 16 -71 16 -133 41 -155 62 -7 7 -20 13 -28 13 -8
0 -14 4 -14 8 0 4 -12 15 -27 24 -90 53 -190 197 -232 332 -25 80 -25 84 -27
506 -3 430 2 520 31 601 9 24 17 49 18 55 2 7 8 18 15 26 6 8 10 17 7 20 -3 3
1 11 10 18 8 7 15 19 15 26 0 8 3 14 8 14 4 0 18 16 31 35 79 117 233 211 388
239 92 16 803 21 918 6z"/>
<path d="M1197 2136 c-10 -8 -21 -30 -24 -50 -7 -44 15 -81 53 -90 77 -20 137
75 84 132 -24 25 -84 30 -113 8z"/>
<path d="M851 2034 c-49 -62 3 -146 80 -129 89 20 72 155 -21 155 -30 0 -43
-6 -59 -26z"/>
<path d="M1552 2054 c-7 -3 -19 -19 -28 -36 -21 -41 -10 -84 26 -103 41 -21
67 -19 95 10 28 27 34 80 12 109 -13 17 -81 30 -105 20z"/>
<path d="M1120 1864 c-81 -22 -158 -69 -222 -135 -183 -191 -184 -477 -3 -676
107 -118 288 -175 455 -143 121 23 260 120 318 222 16 29 30 56 30 61 1 4 9
21 18 39 10 18 18 67 21 122 9 147 -33 270 -125 368 -56 60 -161 124 -234 144
-68 18 -187 17 -258 -2z"/>
<path d="M605 1785 c-33 -32 -33 -76 0 -110 51 -50 135 -15 135 55 0 19 -9 40
-25 55 -15 16 -36 25 -55 25 -19 0 -40 -9 -55 -25z"/>
<path d="M1785 1784 c-29 -32 -31 -55 -8 -95 39 -66 135 -41 141 37 6 79 -80
115 -133 58z"/>
<path d="M525 1458 c-28 -16 -35 -28 -35 -64 0 -77 84 -113 135 -58 33 36 33
78 -1 109 -29 27 -66 31 -99 13z"/>
<path d="M1875 1445 c-27 -28 -31 -54 -13 -88 41 -78 148 -51 148 38 0 72 -82
102 -135 50z"/>
<path d="M606 1109 c-20 -16 -26 -29 -26 -58 0 -74 83 -109 135 -56 73 72 -28
178 -109 114z"/>
<path d="M1802 1123 c-16 -6 -42 -56 -42 -82 0 -59 92 -93 138 -51 64 60 -13
167 -96 133z"/>
<path d="M856 859 c-54 -42 -19 -139 50 -139 74 0 110 87 58 135 -33 30 -73
32 -108 4z"/>
<path d="M1543 865 c-24 -17 -38 -64 -28 -95 7 -24 54 -50 88 -50 64 0 92 86
44 138 -24 26 -72 29 -104 7z"/>
<path d="M1198 768 c-53 -51 -21 -138 50 -138 49 1 73 20 79 67 10 77 -74 124
-129 71z"/>
<path d="M6327 2427 l-139 -32 7 -35 c3 -19 9 -336 11 -705 5 -601 2 -740 -18
-869 -3 -17 6 -18 132 -19 l135 0 16 42 15 42 23 -25 c12 -13 50 -37 84 -52
53 -24 75 -28 147 -27 97 0 161 19 230 66 167 115 244 288 245 552 0 230 -49
379 -160 484 -149 141 -391 163 -522 47 l-23 -19 0 260 c0 283 -4 324 -29 322
-9 0 -78 -15 -154 -32z m431 -728 c79 -27 112 -126 112 -339 0 -266 -44 -350
-183 -350 -60 0 -107 16 -144 49 -23 19 -23 22 -23 293 l0 274 28 26 c59 55
137 73 210 47z"/>
<path d="M5549 2253 l-136 -35 -7 -51 c-3 -29 -6 -91 -6 -139 l0 -88 -60 0
-60 0 0 -105 0 -105 60 0 60 0 0 -373 c0 -440 2 -454 80 -528 104 -98 306
-118 481 -48 l26 10 -17 85 c-10 47 -20 87 -23 90 -3 3 -29 0 -59 -6 -63 -14
-124 -2 -154 31 -18 20 -19 43 -22 380 l-3 359 98 0 98 0 35 97 c19 54 37 101
38 105 2 5 -58 8 -134 8 l-137 0 6 175 c5 159 4 175 -11 174 -10 0 -78 -17
-153 -36z"/>
<path d="M8829 2253 l-137 -35 -6 -36 c-3 -21 -6 -83 -6 -139 l0 -103 -60 0
-60 0 0 -105 0 -105 60 0 59 0 3 -397 c3 -389 4 -399 25 -439 79 -147 321
-199 534 -113 l26 10 -19 87 c-11 47 -21 88 -22 90 -2 2 -30 -2 -62 -9 -46 -9
-69 -9 -102 0 -74 21 -76 30 -80 428 l-4 342 103 3 102 3 38 100 37 100 -140
3 -139 3 6 97 c3 53 8 132 11 175 6 92 21 88 -167 40z"/>
<path d="M9635 2252 l-140 -37 -9 -137 -9 -138 -53 0 -54 0 0 -105 0 -105 54
0 54 0 4 -387 3 -388 28 -58 c50 -100 137 -148 287 -155 77 -4 111 0 178 18
45 12 84 26 87 30 6 10 -24 162 -34 172 -4 4 -31 3 -61 -3 -71 -15 -133 0
-158 38 -15 24 -17 64 -20 380 l-3 353 99 0 99 0 36 98 c21 55 37 102 37 105
0 4 -61 7 -137 7 l-136 0 7 153 c3 83 9 162 12 175 8 29 1 29 -171 -16z"/>
<path d="M3940 1975 c-52 -38 -134 -65 -198 -65 -31 0 -109 12 -172 26 -307
70 -570 -25 -657 -237 -28 -69 -25 -218 6 -286 28 -64 84 -116 159 -151 l55
-25 -62 -22 c-101 -37 -141 -87 -141 -175 0 -140 69 -177 350 -186 213 -7 300
-24 336 -67 23 -27 26 -38 22 -84 -9 -104 -86 -148 -258 -148 -88 0 -112 4
-146 22 -22 12 -46 28 -53 37 -20 24 -30 82 -21 121 l8 35 -143 0 -143 0 -11
-31 c-6 -18 -11 -60 -11 -94 0 -156 130 -273 346 -311 108 -19 349 -14 433 10
224 63 336 219 309 429 -18 135 -118 239 -261 272 -34 8 -134 17 -222 21 -88
3 -166 11 -172 16 -19 15 2 45 55 79 35 22 58 29 96 29 69 0 177 24 241 54 73
33 129 87 165 158 26 52 30 72 30 138 0 65 -5 86 -28 132 l-28 56 75 0 c58 1
86 7 126 27 93 45 93 47 25 150 -33 50 -63 91 -68 93 -4 1 -23 -9 -42 -23z
m-444 -271 c46 -34 65 -67 70 -125 7 -69 -24 -133 -76 -161 -53 -28 -176 -25
-221 5 -51 33 -71 80 -67 152 4 70 29 113 80 139 48 24 176 19 214 -10z"/>
<path d="M4510 1944 c-159 -43 -295 -195 -341 -384 -9 -35 -14 -112 -14 -210
0 -173 10 -222 71 -342 113 -225 390 -326 668 -244 83 25 211 90 236 121 9 11
0 33 -45 104 l-57 89 -61 -39 c-103 -67 -238 -93 -326 -64 -90 30 -161 142
-161 253 l0 32 342 0 341 0 -6 128 c-16 318 -116 487 -328 553 -75 23 -238 25
-319 3z m235 -224 c56 -27 84 -80 92 -170 l6 -70 -180 0 -179 0 8 66 c10 89
41 143 98 172 55 27 101 28 155 2z"/>
<path d="M7778 1941 c-163 -52 -293 -207 -333 -396 -20 -94 -19 -287 1 -378
60 -269 259 -430 534 -430 121 0 231 29 337 89 119 68 116 59 46 164 l-60 90
-27 -21 c-87 -69 -257 -114 -339 -90 -102 30 -164 112 -174 230 l-6 61 343 0
343 0 -7 123 c-8 158 -27 244 -72 337 -60 121 -158 200 -285 229 -73 17 -236
12 -301 -8z m235 -215 c66 -27 107 -109 107 -211 l0 -35 -181 0 -180 0 6 48
c15 110 46 164 109 193 49 22 95 24 139 5z"/>
<path d="M10545 1946 c-113 -26 -335 -124 -335 -148 0 -5 27 -56 60 -113 l60
-103 120 61 c106 53 127 60 192 64 126 8 158 -20 166 -143 l5 -74 -101 0
c-118 0 -243 -22 -320 -56 -85 -38 -136 -85 -174 -162 -32 -64 -33 -72 -33
-182 0 -110 1 -118 33 -183 61 -124 178 -181 367 -181 115 0 181 21 260 81 44
33 48 35 58 17 15 -26 76 -81 115 -101 l34 -18 35 40 c19 22 55 64 80 92 l45
53 -37 41 c-65 72 -65 73 -65 437 0 355 -5 394 -54 460 -30 42 -87 83 -146
107 -60 24 -278 31 -365 11z m257 -793 c-3 -96 -8 -132 -19 -145 -25 -28 -96
-58 -139 -58 -51 0 -83 17 -112 60 -21 30 -23 44 -20 107 3 64 7 76 33 103 37
39 96 55 210 59 l51 1 -4 -127z"/>
</g>
</svg>
