<svg xmlns="http://www.w3.org/2000/svg" version="1.0" width="818.000000pt" height="166.000000pt" viewBox="0 0 818.000000 166.000000" preserveAspectRatio="xMidYMid meet">

<g transform="translate(0.000000,166.000000) scale(0.100000,-0.100000)" fill="#04325b" stroke="none">
<path d="M344 1410 c-18 -4 -38 -12 -45 -19 -8 -6 -24 -20 -36 -30 -29 -23 -53 -80 -53 -124 0 -101 59 -198 207 -340 28 -28 49 -56 46 -64 -3 -7 -9 -10 -14 -7 -5 3 -9 2 -9 -3 0 -4 -12 -14 -27 -20 -42 -19 -130 -110 -154 -160 -73 -151 10 -312 211 -411 138 -68 217 -84 420 -88 184 -4 240 3 370 47 63 21 140 55 150 68 3 3 15 12 28 19 21 11 27 9 70 -27 61 -51 112 -71 190 -76 96 -6 164 21 239 92 92 87 119 225 68 347 l-24 59 34 31 c58 53 134 85 218 92 65 6 78 10 83 27 7 24 -18 47 -51 47 -95 0 -237 -55 -295 -115 l-31 -32 -59 35 c-47 27 -58 38 -51 51 16 29 84 79 161 119 62 32 75 43 75 63 0 18 -6 25 -24 27 -13 2 -28 -1 -34 -7 -6 -6 -18 -11 -27 -11 -34 0 -182 -112 -221 -167 -9 -14 -30 -23 -60 -27 -71 -10 -135 -31 -159 -54 -20 -18 -50 -20 -50 -3 0 3 22 20 48 38 59 40 153 132 203 198 133 176 120 335 -31 391 -108 39 -349 3 -509 -76 -95 -47 -150 -119 -170 -221 -8 -38 -9 -40 -11 -14 -2 41 -6 57 -24 113 -31 93 -156 173 -345 221 -87 22 -240 27 -307 11z m320 -85 c224 -65 286 -133 286 -312 0 -86 -1 -87 -53 -130 -39 -31 -126 -66 -178 -70 -50 -5 -63 -2 -119 28 -68 36 -218 175 -263 244 -92 141 -72 235 58 269 42 11 186 -5 269 -29z m1045 -25 c86 -44 76 -143 -30 -286 -37 -50 -166 -174 -182 -174 -4 0 -21 -10 -38 -22 l-30 -22 -47 26 c-61 33 -176 74 -234 83 -26 4 -49 13 -52 21 -3 7 -3 44 -1 83 4 74 31 152 66 184 30 28 162 85 247 107 43 10 86 21 97 24 42 10 165 -4 204 -24z m-679 -355 c0 -8 -4 -15 -10 -15 -5 0 -7 7 -4 15 4 8 8 15 10 15 2 0 4 -7 4 -15z m-20 -410 c0 -179 -3 -325 -7 -325 -5 0 -32 -3 -60 -6 -29 -4 -69 -3 -88 0 l-35 7 0 277 0 278 34 12 c19 7 53 28 77 47 83 65 79 79 79 -290z m198 283 l62 -19 0 -265 0 -264 -22 -9 c-13 -5 -26 -10 -30 -11 -4 -1 -29 -8 -54 -16 -92 -27 -84 -55 -84 302 l0 316 33 -7 c17 -4 60 -16 95 -27z m-600 -58 c29 -11 72 -20 97 -20 l45 0 0 -261 0 -261 -45 6 c-25 4 -69 15 -98 25 l-52 18 -3 256 c-1 142 -1 257 0 257 2 0 27 -9 56 -20z m-127 -232 c-1 -123 -4 -224 -5 -225 -1 -2 -26 15 -55 36 -99 74 -139 161 -111 247 14 45 94 144 116 144 8 0 14 4 14 9 0 9 31 20 39 14 2 -1 3 -103 2 -225z m892 221 c12 -6 36 -25 54 -41 l31 -30 -26 -51 c-33 -64 -41 -165 -19 -232 9 -25 13 -45 9 -45 -4 0 -20 -11 -36 -25 -16 -14 -33 -25 -38 -25 -4 0 -8 104 -8 230 0 127 3 230 6 230 3 0 15 -5 27 -11z m317 -18 c0 -5 -7 -24 -15 -43 -11 -28 -12 -39 -2 -52 19 -26 45 -10 73 45 13 27 30 49 37 49 18 0 97 -52 124 -81 80 -87 71 -248 -18 -338 -65 -65 -170 -87 -259 -55 -28 10 -50 21 -50 25 0 4 -8 10 -18 14 -27 8 -81 96 -90 147 -22 123 55 251 173 287 40 12 45 13 45 2z" fill="#04325b"/>
<path d="M6527 1358 l-27 -10 6 -431 c4 -238 8 -434 10 -436 7 -8 59 17 57 28 -4 15 8 14 50 -4 45 -19 108 -19 150 -1 30 13 97 79 102 101 1 5 8 24 15 40 44 105 9 325 -63 397 -40 40 -122 55 -184 35 -26 -9 -48 -15 -49 -14 -2 3 -14 225 -14 270 0 40 -6 42 -53 25z m231 -373 c40 -34 64 -116 65 -224 2 -153 -31 -201 -137 -201 -63 0 -93 13 -96 40 -2 8 -2 94 -1 192 l1 176 33 21 c44 29 98 27 135 -4z" fill="#04325b"/>
<path d="M2592 908 l3 -393 40 0 40 0 -3 205 c-2 153 1 209 10 221 37 47 142 64 180 29 31 -28 37 -67 39 -259 3 -209 3 -210 64 -195 l27 7 -4 206 c-6 239 -12 262 -88 311 -61 39 -127 41 -194 5 l-46 -24 0 32 c0 18 -3 77 -5 132 -6 100 -12 115 -48 115 -16 0 -17 -23 -15 -392z" fill="#04325b"/>
<path d="M5399 1235 c-1 -3 -3 -9 -4 -15 -1 -5 -3 -46 -4 -90 l-1 -80 -56 0 -55 0 3 -37 3 -38 46 1 47 0 4 -160 c8 -248 39 -311 150 -308 48 1 148 20 148 28 0 1 -5 14 -11 27 -10 22 -16 23 -81 23 -62 -1 -72 2 -89 22 -28 35 -37 82 -43 229 -7 151 -16 138 102 149 74 7 84 15 60 47 -10 12 -32 17 -88 19 l-75 3 -3 70 c-3 96 -8 115 -32 115 -11 0 -21 -2 -21 -5z" fill="#04325b"/>
<path d="M3215 1103 c-48 -10 -115 -47 -115 -64 0 -44 9 -50 48 -30 58 29 78 33 120 21 33 -8 43 -17 56 -50 25 -62 22 -70 -26 -70 -108 0 -220 -107 -243 -233 -15 -80 42 -161 122 -173 38 -5 53 -2 103 24 l58 30 12 -28 c12 -30 39 -43 61 -29 30 18 34 371 6 462 -16 51 -56 111 -85 126 -22 12 -90 20 -117 14z m130 -273 c11 -35 2 -174 -12 -191 -7 -8 -35 -26 -62 -39 -109 -50 -174 17 -124 127 22 47 56 79 108 104 53 25 82 24 90 -1z" fill="#04325b"/>
<path d="M5825 1084 c-39 -17 -65 -38 -65 -53 0 -6 -4 -11 -9 -11 -5 0 -12 -10 -16 -22 -3 -13 -10 -32 -15 -43 -18 -38 -38 -178 -35 -234 2 -31 11 -73 19 -93 42 -100 144 -161 230 -137 132 36 201 259 134 436 -24 66 -97 149 -136 157 -64 13 -80 13 -107 0z m116 -75 c15 -11 40 -44 55 -75 24 -50 26 -62 22 -142 -10 -164 -83 -257 -169 -214 -53 27 -83 91 -82 177 1 79 28 218 43 223 6 2 8 7 5 12 -3 5 7 18 22 30 31 24 60 21 104 -11z" fill="#04325b"/>
<path d="M3537 897 c-3 -105 -6 -298 -6 -427 l-2 -236 24 -22 c24 -22 53 -22 69 2 3 5 4 74 1 152 l-6 143 60 -16 c145 -36 231 46 253 241 16 137 -20 255 -96 312 -46 35 -130 44 -188 20 -47 -19 -43 -20 -48 2 -3 10 -16 18 -30 19 l-25 3 -6 -193z m267 95 c31 -28 47 -81 48 -156 0 -96 -9 -152 -35 -206 -18 -36 -30 -48 -64 -59 -38 -13 -45 -13 -83 4 -22 10 -43 22 -46 26 -2 4 -7 88 -10 186 -7 199 -4 208 56 223 47 12 110 3 134 -18z" fill="#04325b"/>
<path d="M4037 933 c-3 -87 -6 -282 -7 -434 l-1 -276 24 -16 c31 -20 67 -12 68 17 0 11 0 81 -1 153 l-1 133 38 -14 c56 -19 129 -12 175 19 21 14 42 34 45 43 4 9 9 19 13 22 12 9 38 115 45 176 13 135 -51 280 -141 315 -40 15 -118 13 -154 -6 -36 -18 -40 -19 -40 -1 0 11 -27 25 -51 26 -3 0 -9 -71 -12 -157z m259 61 c39 -26 54 -72 54 -166 -1 -151 -29 -228 -94 -253 -47 -18 -83 -10 -123 27 -20 19 -22 29 -23 198 -1 195 -1 195 63 211 43 11 90 4 123 -17z" fill="#04325b"/>
<path d="M4877 1081 c-2 -3 -5 -26 -6 -51 -2 -49 -38 -199 -51 -215 -5 -5 -8 -12 -9 -15 0 -10 -14 -46 -34 -90 -11 -25 -20 -48 -19 -52 1 -5 -3 -8 -9 -8 -5 0 -8 -3 -5 -8 2 -4 -2 -15 -9 -25 -12 -17 -14 -16 -34 8 -34 45 -78 173 -106 318 l-28 137 -34 0 c-32 0 -34 -2 -29 -27 3 -16 10 -64 17 -108 22 -158 82 -320 143 -389 28 -32 28 -48 -4 -101 -10 -16 -37 -67 -60 -113 -23 -45 -46 -85 -51 -88 -18 -10 -9 -30 22 -48 31 -18 32 -18 43 0 6 11 16 28 23 39 7 11 24 45 38 75 14 30 33 62 42 72 9 10 13 18 9 18 -4 0 2 13 13 29 11 15 18 31 14 35 -3 3 -1 6 6 6 7 0 9 5 6 10 -3 6 -1 10 4 10 6 0 11 8 11 18 0 9 10 35 23 57 12 22 35 74 51 115 15 41 34 91 42 110 13 36 22 66 29 97 2 10 10 47 19 83 9 36 16 70 16 76 0 13 -78 36 -83 25z" fill="#04325b"/>
<path d="M7157 1076 c-101 -37 -146 -104 -155 -232 -5 -84 17 -199 51 -259 25 -44 74 -74 122 -74 69 -1 275 53 275 72 -1 31 -14 34 -100 21 -207 -31 -261 -8 -278 122 l-8 61 77 12 c107 16 191 47 223 80 38 40 40 110 5 147 -55 59 -133 78 -212 50z m135 -83 c31 -28 22 -49 -30 -71 -71 -31 -182 -66 -188 -60 -9 10 22 72 47 94 59 53 135 69 171 37z" fill="#04325b"/>
<path d="M7671 1079 c-78 -15 -132 -64 -156 -143 -31 -101 -10 -281 41 -357 51 -74 111 -82 290 -38 100 25 108 30 99 59 -5 16 -12 20 -28 16 -12 -3 -68 -11 -124 -18 -136 -15 -177 -5 -203 55 -10 23 -20 62 -22 86 l-3 45 89 17 c129 26 185 48 214 87 47 62 17 156 -61 187 -41 16 -69 17 -136 4z m127 -94 c7 -14 12 -30 12 -35 0 -14 -226 -97 -236 -87 -10 10 35 92 58 106 53 33 75 41 114 41 34 0 43 -4 52 -25z" fill="#04325b"/>
</g>
</svg>