<?xml version="1.0" standalone="no"?>
<!DOCTYPE svg PUBLIC "-//W3C//DTD SVG 20010904//EN"
 "http://www.w3.org/TR/2001/REC-SVG-20010904/DTD/svg10.dtd">
<svg version="1.0" xmlns="http://www.w3.org/2000/svg"
 width="1108.000000pt" height="258.000000pt" viewBox="0 0 1108.000000 258.000000"
 preserveAspectRatio="xMidYMid meet">

<g transform="translate(0.000000,258.000000) scale(0.100000,-0.100000)"
fill="#000000" stroke="none">
<path d="M1144 2350 c-130 -24 -293 -89 -411 -166 -75 -49 -228 -202 -277
-277 -95 -147 -151 -305 -166 -475 -47 -524 282 -986 790 -1109 105 -25 355
-25 459 0 311 75 564 275 701 552 85 172 114 337 98 553 -31 423 -343 790
-765 904 -88 23 -339 34 -429 18z m409 -40 c406 -104 719 -454 763 -853 l7
-62 -23 20 c-12 11 -38 45 -57 75 -19 30 -70 91 -113 135 -43 44 -87 95 -99
114 -18 31 -25 35 -65 36 -41 0 -51 6 -98 52 -29 29 -75 61 -101 72 -40 17
-106 59 -127 81 -21 21 -82 60 -94 60 -8 0 -26 -15 -40 -32 -111 -144 -165
-221 -191 -269 -29 -54 -107 -149 -123 -149 -9 0 -50 31 -106 81 -62 54 -160
127 -190 140 -33 15 -41 9 -128 -109 -38 -50 -90 -114 -116 -140 -26 -26 -90
-103 -142 -170 -70 -90 -107 -128 -141 -147 -26 -14 -49 -25 -52 -25 -10 0
-13 108 -5 199 26 303 194 585 449 753 127 84 253 134 404 159 83 13 301 2
388 -21z m-58 -382 c-51 -69 -89 -137 -81 -145 9 -10 23 7 61 72 43 73 75 109
75 83 0 -9 -7 -21 -15 -28 -8 -7 -35 -46 -60 -87 -25 -40 -52 -84 -61 -97 -10
-16 -12 -26 -5 -31 6 -3 37 35 72 90 34 52 64 93 67 91 11 -11 -34 -96 -92
-176 -35 -47 -81 -112 -103 -145 -23 -33 -53 -71 -68 -85 -43 -40 -117 -139
-113 -152 3 -8 12 -3 25 12 11 14 49 58 84 98 66 76 90 108 211 280 54 77 74
99 80 87 11 -18 -10 -61 -54 -110 -17 -20 -28 -38 -25 -41 9 -10 53 29 79 69
17 26 27 34 31 25 3 -8 -26 -52 -69 -103 -40 -48 -71 -92 -68 -96 2 -4 -2 -11
-9 -16 -7 -4 -32 -36 -55 -70 -23 -34 -69 -95 -102 -136 -55 -69 -74 -104 -51
-95 22 8 221 272 221 293 0 15 144 174 152 169 5 -3 -7 -25 -26 -47 -20 -23
-87 -118 -151 -212 -138 -205 -133 -198 -171 -221 -17 -11 -76 -67 -132 -125
-55 -58 -119 -118 -141 -134 -23 -15 -41 -34 -41 -42 0 -22 33 0 116 79 41 39
76 69 78 67 10 -10 -30 -109 -45 -114 -30 -10 -150 -113 -139 -120 6 -4 31 11
56 32 87 72 89 72 49 -3 -21 -38 -55 -86 -76 -107 -42 -41 -46 -47 -26 -47 22
0 84 71 125 145 22 39 46 71 54 73 7 1 42 -15 76 -38 63 -40 82 -48 82 -31 0
11 -122 91 -138 91 -7 0 -12 10 -12 21 0 32 41 139 53 139 6 0 21 -9 33 -21
12 -12 28 -19 35 -17 7 2 -3 19 -25 41 l-38 36 25 23 c14 13 78 54 143 91
l118 69 34 -16 c50 -24 61 -19 23 13 l-34 28 26 7 c15 3 50 20 78 36 l51 31
34 -22 c48 -29 65 -18 22 15 -34 25 -37 32 -43 94 -3 37 -8 78 -11 91 -5 23
-4 24 19 8 45 -29 38 -4 -10 43 -34 32 -55 64 -74 113 -16 42 -21 63 -12 56
26 -22 27 1 1 29 -19 20 -28 44 -35 94 -9 66 -9 67 11 56 12 -6 41 -28 66 -49
25 -21 70 -49 100 -62 30 -14 64 -35 75 -47 41 -46 97 -80 134 -80 27 0 32 -3
21 -10 -8 -5 -30 -10 -48 -10 -20 0 -31 -4 -27 -10 3 -5 22 -10 41 -10 42 0
37 -15 -6 -24 -17 -3 -29 -10 -25 -16 3 -5 19 -7 35 -3 34 6 42 -12 9 -20 -12
-3 -18 -10 -15 -16 4 -6 12 -8 19 -5 9 3 11 -12 9 -58 -5 -95 17 -60 24 37 3
44 8 91 11 105 5 25 5 24 23 -10 10 -19 51 -66 91 -105 40 -38 87 -92 105
-120 17 -27 46 -63 63 -79 29 -28 31 -34 31 -103 0 -41 -7 -109 -16 -151 -75
-370 -337 -664 -690 -775 -554 -175 -1157 173 -1284 740 -20 93 -21 90 51 121
37 16 63 42 135 132 49 62 120 147 157 189 38 42 90 104 115 138 25 35 48 61
50 58 4 -3 -68 -114 -123 -191 -5 -7 -6 -16 -2 -21 9 -8 42 29 88 99 17 27 35
45 40 42 12 -7 11 -41 -1 -49 -11 -7 -60 -80 -60 -90 0 -3 6 -5 13 -5 7 0 23
18 36 40 27 49 41 58 41 28 0 -14 -32 -67 -75 -125 -41 -56 -75 -109 -75 -118
0 -26 13 -12 85 90 37 52 71 95 75 95 17 0 20 -34 5 -54 -9 -12 -31 -43 -49
-71 -19 -27 -61 -81 -95 -120 -33 -38 -61 -73 -61 -77 0 -19 22 -4 57 38 21
26 49 58 62 73 12 14 41 52 63 84 23 31 44 57 49 57 24 0 15 -27 -28 -86 -26
-36 -52 -72 -58 -79 -15 -22 3 -30 25 -10 11 10 34 40 51 67 17 27 33 47 35
46 2 -2 -4 -33 -12 -68 -12 -52 -26 -78 -69 -133 -30 -37 -55 -72 -55 -77 0
-23 22 -7 62 46 23 31 44 51 46 45 2 -6 -3 -39 -12 -74 -18 -70 -20 -97 -8
-97 12 0 42 123 43 177 0 26 4 56 8 66 6 17 8 17 25 -2 22 -24 36 -27 36 -7 0
7 -11 21 -25 30 -23 15 -36 56 -17 56 4 0 27 -20 50 -45 64 -69 71 -43 7 27
-32 36 -55 71 -55 83 0 13 -6 28 -14 35 -8 6 -28 53 -45 103 -16 51 -33 101
-37 112 -7 18 -6 19 9 6 24 -19 32 -7 13 21 -18 25 -20 46 -7 67 8 12 28 0
103 -57 138 -106 199 -160 189 -166 -5 -4 -15 0 -23 7 -44 43 -107 87 -112 78
-3 -5 19 -32 50 -59 32 -28 54 -54 50 -60 -4 -7 -22 4 -47 28 -55 53 -72 40
-20 -14 23 -23 41 -46 41 -51 0 -5 -5 -4 -12 3 -7 7 -16 12 -20 12 -15 0 -8
-27 11 -44 18 -17 21 -15 64 41 25 32 69 81 98 108 l52 50 -33 -47 c-18 -27
-42 -55 -52 -65 -22 -19 -23 -33 -4 -33 8 0 40 35 72 78 31 42 70 94 85 114
48 61 32 67 -22 8 l-51 -55 32 60 c35 65 199 289 207 281 2 -2 -17 -33 -42
-68z m129 -316 c-11 -17 -46 -70 -79 -119 -83 -122 -83 -123 -105 -169 -11
-22 -31 -46 -46 -52 -14 -7 -24 -9 -22 -5 8 20 167 256 211 315 50 67 77 86
41 30z m45 -64 c1 -20 -15 -40 -70 -90 -43 -39 -70 -70 -67 -79 3 -9 25 6 70
49 65 63 87 68 74 18 -4 -16 -33 -36 -106 -73 -55 -28 -100 -47 -100 -43 0 8
128 203 165 252 17 22 21 24 27 10 4 -10 7 -29 7 -44z"/>
<path d="M1354 1638 c-15 -24 -35 -50 -44 -58 -9 -8 -46 -49 -83 -91 -61 -70
-79 -99 -59 -99 7 0 162 175 162 183 0 2 18 24 39 48 36 39 43 59 22 59 -5 0
-21 -19 -37 -42z"/>
<path d="M1427 1571 c-25 -38 -77 -104 -114 -147 -84 -96 -117 -143 -108 -152
4 -4 16 6 28 23 12 16 54 66 93 110 59 66 123 153 157 212 4 6 3 14 -2 17 -4
3 -29 -25 -54 -63z"/>
<path d="M637 1466 c-44 -43 -65 -81 -52 -94 4 -4 12 2 19 12 6 11 30 41 54
66 23 26 42 50 42 54 0 15 -22 3 -63 -38z"/>
<path d="M718 1458 c-36 -55 -78 -126 -78 -134 0 -2 4 -4 10 -4 5 0 21 21 36
48 15 26 40 63 56 83 15 20 28 42 28 48 0 23 -18 9 -52 -41z"/>
<path d="M1440 1238 c0 -15 59 -58 80 -58 18 0 -9 29 -49 53 -23 13 -31 15
-31 5z"/>
<path d="M1697 1183 c-40 -3 -57 -8 -54 -16 3 -8 26 -11 68 -10 62 2 63 2 34
-12 -16 -8 -42 -14 -57 -15 -16 0 -28 -5 -28 -11 0 -7 17 -10 45 -7 50 4 58
-6 20 -24 -28 -13 -28 -35 0 -30 14 3 16 -1 11 -22 -4 -15 -2 -26 4 -26 5 0
12 12 15 28 3 15 11 44 17 66 l12 38 23 -63 c35 -96 36 -98 40 -68 7 45 -55
181 -80 177 -6 -1 -38 -3 -70 -5z"/>
<path d="M1310 1020 c0 -13 28 -25 38 -16 3 4 0 11 -8 16 -20 13 -30 12 -30 0z"/>
<path d="M3718 2037 c-16 -19 -37 -38 -48 -42 -12 -4 -61 8 -117 27 -90 30
-108 33 -218 32 -213 -1 -349 -57 -501 -208 -75 -75 -99 -107 -137 -183 -63
-127 -81 -213 -75 -366 9 -208 69 -348 213 -492 136 -137 301 -205 494 -205
165 0 304 52 418 155 l62 56 3 265 3 266 38 34 c20 19 37 36 37 39 0 3 -82 5
-181 5 l-182 0 42 -45 41 -45 -2 -292 -3 -292 -75 -29 c-95 -37 -215 -42 -300
-13 -196 66 -337 252 -381 500 -14 83 -7 238 15 321 41 151 146 302 257 368
91 54 158 72 259 71 144 -3 245 -58 320 -174 60 -93 68 -62 51 189 l-6 95 -27
-37z"/>
<path d="M4624 2051 c-142 -23 -258 -85 -360 -192 -96 -101 -152 -217 -180
-369 -73 -407 126 -772 476 -870 102 -28 255 -28 363 -1 230 60 407 245 473
496 28 108 26 334 -4 440 -36 124 -83 213 -156 292 -129 139 -263 200 -455
208 -58 2 -129 0 -157 -4z m221 -96 c129 -34 228 -121 295 -259 50 -104 69
-184 77 -321 17 -333 -133 -611 -364 -672 -90 -24 -208 -13 -287 26 -67 33
-154 113 -193 179 -73 119 -107 277 -101 462 4 118 9 147 37 230 39 115 69
169 133 236 105 112 257 156 403 119z"/>
<path d="M5602 1923 c-6 -75 -10 -138 -8 -140 2 -3 14 22 25 54 28 78 33 85
72 108 29 17 56 20 187 23 l152 4 0 -614 c0 -337 -5 -630 -9 -652 -6 -23 -25
-54 -47 -77 l-38 -39 182 0 c100 0 182 3 182 7 0 4 -14 21 -31 39 -17 17 -35
49 -40 70 -4 22 -9 315 -9 652 l0 614 153 -4 c130 -3 157 -6 186 -23 39 -23
44 -30 72 -108 11 -32 23 -57 25 -54 2 2 -2 65 -8 140 l-12 137 -511 0 -511 0
-12 -137z"/>
<path d="M6840 2050 c0 -5 9 -14 20 -20 11 -6 28 -23 38 -37 15 -25 17 -74 22
-548 5 -518 5 -520 29 -580 63 -160 180 -244 369 -266 258 -29 465 88 523 298
17 62 19 108 19 548 0 302 4 494 11 518 6 21 22 46 39 59 17 12 30 25 30 30 0
4 -82 8 -182 8 l-183 -1 32 -28 c17 -16 36 -38 42 -49 8 -14 11 -190 11 -554
0 -514 -1 -535 -21 -578 -25 -55 -71 -105 -124 -133 -58 -31 -193 -31 -251 0
-53 28 -121 105 -134 152 -6 22 -10 242 -10 569 l0 532 41 45 42 45 -182 0
c-110 0 -181 -4 -181 -10z"/>
<path d="M8169 2015 l41 -45 -2 -651 -3 -651 -37 -34 c-21 -19 -38 -36 -38
-39 0 -3 81 -5 180 -5 111 0 180 4 180 10 0 5 -12 17 -26 27 -49 32 -54 62
-54 321 l0 239 88 10 c61 7 89 6 94 -1 4 -6 94 -132 200 -281 234 -325 221
-316 413 -323 137 -5 154 2 82 37 -23 11 -60 38 -81 60 -59 60 -416 565 -403
570 126 40 270 122 327 188 159 181 102 433 -122 547 -116 58 -181 66 -555 66
l-326 0 42 -45z m470 -55 c193 -20 298 -75 337 -175 22 -60 16 -184 -13 -240
-67 -128 -249 -228 -458 -250 -33 -4 -68 -9 -77 -11 -17 -5 -18 16 -18 340 l0
346 64 0 c35 0 109 -5 165 -10z"/>
<path d="M9985 2054 c-11 -2 -45 -9 -75 -15 -77 -15 -205 -79 -268 -134 -151
-134 -232 -334 -232 -574 0 -305 127 -539 358 -659 102 -54 182 -72 312 -72
201 0 335 53 465 184 121 122 183 255 206 444 22 174 -16 370 -98 512 -57 97
-162 199 -253 244 -41 20 -100 43 -130 52 -55 15 -247 27 -285 18z m247 -114
c166 -63 277 -232 314 -481 51 -352 -104 -690 -348 -755 -263 -70 -495 98
-568 411 -28 119 -34 209 -20 316 38 295 175 484 385 529 59 13 176 3 237 -20z"/>
</g>
</svg>
