<?xml version="1.0" standalone="no"?>
<!DOCTYPE svg PUBLIC "-//W3C//DTD SVG 20010904//EN"
 "http://www.w3.org/TR/2001/REC-SVG-20010904/DTD/svg10.dtd">
<svg version="1.0" xmlns="http://www.w3.org/2000/svg"
 width="542.000000pt" height="120.000000pt" viewBox="0 0 542.000000 120.000000"
 preserveAspectRatio="xMidYMid meet">

<g transform="translate(0.000000,120.000000) scale(0.100000,-0.100000)"
fill="#FFFFFF" stroke="none">
<path d="M414 981 c-17 -11 -49 -40 -70 -66 -22 -25 -54 -53 -72 -62 -51 -24
-92 -68 -92 -97 0 -26 1 -26 28 -12 15 8 50 38 78 68 28 29 69 64 92 78 48 28
75 62 70 91 -3 19 -3 19 -34 0z"/>
<path d="M710 984 c0 -8 29 -43 64 -77 35 -34 71 -76 80 -93 29 -59 116 -111
116 -70 0 16 -48 69 -91 102 -15 11 -36 38 -47 61 -35 69 -122 124 -122 77z"/>
<path d="M1290 600 l0 -320 114 0 c119 0 160 9 182 38 16 21 20 532 4 562 -16
29 -66 40 -186 40 l-114 0 0 -320z m218 6 c2 -185 -1 -241 -10 -248 -7 -4 -37
-8 -65 -8 l-53 0 0 250 0 251 63 -3 62 -3 3 -239z"/>
<path d="M1720 601 l0 -321 45 0 45 0 0 130 0 130 28 0 c26 0 29 -6 70 -118
24 -65 47 -123 51 -130 5 -9 24 -12 54 -10 l45 3 -48 124 -49 124 29 27 c35
33 44 84 38 215 -6 136 -9 139 -178 143 l-130 4 0 -321z m208 237 c8 -8 12
-48 12 -115 0 -116 -2 -118 -86 -111 l-39 3 -3 104 c-1 58 0 111 2 118 7 17
97 18 114 1z"/>
<path d="M2173 896 l-28 -24 -3 -254 c-2 -161 1 -264 7 -281 16 -43 68 -60
169 -55 128 5 122 -10 122 324 l0 274 -32 20 c-26 16 -51 20 -120 20 -77 0
-90 -3 -115 -24z m175 -290 c2 -185 -1 -241 -10 -248 -20 -12 -82 -10 -96 4
-18 18 -17 474 1 482 6 3 32 4 57 3 l45 -2 3 -239z"/>
<path d="M2570 600 l0 -320 40 0 40 0 2 226 3 226 65 -224 66 -223 47 -3 47
-3 0 320 0 321 -40 0 -40 0 0 -217 c0 -119 -4 -213 -8 -207 -5 5 -35 102 -68
216 l-59 208 -47 0 -48 0 0 -320z"/>
<path d="M3010 600 l0 -320 135 0 135 0 0 35 0 35 -90 0 -90 0 0 115 0 115 70
0 70 0 0 35 0 35 -70 0 -70 0 0 100 0 100 85 0 85 0 0 35 0 35 -130 0 -130 0
0 -320z"/>
<path d="M3403 908 c-32 -16 -43 -59 -43 -174 0 -93 2 -106 23 -129 19 -23 33
-28 97 -33 l75 -7 3 -101 c3 -98 2 -102 -20 -108 -64 -17 -88 2 -88 68 0 36 0
36 -45 36 l-45 0 1 -47 c2 -74 11 -96 49 -115 40 -20 140 -24 187 -8 44 16 53
46 53 181 0 114 -1 121 -25 144 -21 22 -33 25 -93 25 -83 0 -82 -1 -82 115 0
91 3 95 65 95 37 0 45 -12 45 -71 l0 -39 45 0 45 0 0 55 c0 69 -15 101 -53
115 -38 13 -165 12 -194 -2z"/>
<path d="M3760 600 l0 -320 140 0 140 0 0 35 0 34 -92 3 -93 3 0 110 0 110 73
3 72 3 0 34 0 35 -75 0 -76 0 3 98 3 97 88 3 87 3 0 34 0 35 -135 0 -135 0 0
-320z"/>
<path d="M4130 600 l0 -320 45 0 45 0 0 130 0 130 28 0 c26 0 29 -6 71 -123
24 -67 47 -126 51 -130 4 -5 28 -7 52 -5 l46 3 -49 124 -49 123 30 28 30 28 0
146 0 146 -32 20 c-28 17 -51 20 -150 20 l-118 0 0 -320z m210 231 c5 -11 10
-56 10 -101 0 -109 -7 -120 -75 -120 l-55 0 0 113 c0 63 3 117 7 120 3 4 28 7
54 7 38 0 51 -4 59 -19z"/>
<path d="M4513 893 c3 -16 29 -160 58 -320 l52 -293 63 0 c58 0 64 2 69 23 3
12 27 148 55 302 28 154 52 288 54 298 3 14 -3 17 -42 17 l-47 0 -39 -253
c-21 -138 -42 -260 -45 -270 -4 -10 -24 96 -45 235 -21 139 -40 261 -42 271
-4 13 -16 17 -51 17 -44 0 -45 -1 -40 -27z"/>
<path d="M4950 600 l0 -320 135 0 135 0 0 35 0 35 -90 0 -90 0 0 115 0 115 76
0 75 0 -3 33 -3 32 -72 3 -73 3 0 99 0 100 90 0 90 0 0 35 0 35 -135 0 -135 0
0 -320z"/>
<path d="M695 789 c-54 -38 -108 -69 -118 -69 -11 0 -61 29 -112 65 -90 63
-127 77 -140 54 -4 -6 23 -55 59 -110 45 -67 66 -109 66 -129 0 -21 -20 -59
-66 -125 -56 -81 -63 -97 -54 -115 6 -11 13 -20 16 -20 3 0 52 32 108 70 56
39 111 70 122 70 11 0 66 -31 121 -68 75 -52 105 -67 117 -60 9 5 16 15 16 22
0 7 -29 55 -65 107 -35 52 -65 104 -65 117 0 12 30 67 67 123 53 79 65 104 57
117 -6 9 -15 17 -20 18 -5 1 -54 -29 -109 -67z m-71 -175 c28 -11 -2 -34 -43
-34 -42 0 -67 13 -57 29 8 12 74 15 100 5z"/>
<path d="M187 474 c-12 -12 23 -63 68 -101 26 -21 58 -58 72 -82 34 -58 70
-91 100 -91 23 0 23 1 9 29 -8 15 -38 49 -66 74 -28 26 -61 65 -74 89 -12 24
-37 53 -56 66 -35 23 -43 26 -53 16z"/>
<path d="M882 403 c-38 -37 -84 -77 -102 -88 -32 -19 -80 -77 -80 -96 0 -5 9
-9 19 -9 19 0 57 32 101 85 14 17 45 42 70 55 43 25 94 84 87 104 -8 25 -31
13 -95 -51z"/>
</g>
</svg>
