<svg xmlns="http://www.w3.org/2000/svg" version="1.0" width="602.000000pt" height="188.000000pt" viewBox="0 0 602.000000 188.000000" preserveAspectRatio="xMidYMid meet">

<g transform="translate(0.000000,188.000000) scale(0.100000,-0.100000)" fill="#04325B" stroke="none">
<path d="M2650 1626 c-96 -25 -110 -31 -110 -50 0 -16 31 -26 78 -26 l32 0 0 -458 0 -458 -42 -14 c-32 -11 -44 -21 -46 -38 l-3 -23 153 3 c137 3 153 5 156 21 3 13 -9 23 -42 38 l-46 20 0 208 c0 198 1 210 23 252 32 62 104 109 166 109 65 0 92 -17 121 -75 24 -48 25 -58 28 -275 l4 -225 -44 -16 c-30 -11 -43 -22 -43 -35 0 -18 10 -19 153 -22 144 -2 152 -1 152 17 0 24 -19 39 -58 47 l-30 6 -4 247 c-3 231 -5 249 -26 296 -41 90 -78 114 -186 122 -64 4 -77 2 -126 -24 -40 -20 -65 -43 -92 -82 l-38 -54 0 256 0 257 -22 0 c-13 -1 -61 -11 -108 -24z" />
<path d="M4055 1585 c-33 -32 -34 -83 -2 -113 33 -31 105 -31 135 1 51 54 10 137 -68 137 -30 0 -47 -6 -65 -25z" />
<path d="M3543 1444 l-43 -25 0 -62 0 -62 -53 -20 c-39 -15 -53 -26 -55 -42 -3 -21 0 -23 51 -23 l55 0 4 -262 c3 -257 4 -264 28 -313 31 -63 72 -85 155 -85 43 0 74 7 110 25 114 55 113 74 -3 67 -82 -4 -90 -3 -115 19 -38 33 -47 99 -47 347 l0 202 110 0 110 0 0 35 0 34 -107 3 -108 3 -3 93 c-3 87 -4 92 -25 92 -12 0 -41 -12 -64 -26z" />
<path d="M1368 1284 c-78 -18 -138 -50 -137 -72 0 -9 8 -48 17 -87 14 -56 21 -71 38 -73 17 -2 26 11 55 85 l35 88 51 9 c107 18 165 -44 167 -180 1 -40 -2 -75 -6 -79 -4 -4 -46 -11 -95 -16 -187 -20 -279 -69 -304 -161 -35 -134 53 -248 192 -248 92 1 153 39 197 125 l21 40 1 -46 c0 -67 11 -110 28 -117 16 -6 81 9 150 35 50 19 60 53 15 53 -16 0 -38 3 -50 6 l-23 6 0 252 c0 223 -3 256 -19 292 -42 93 -172 128 -333 88z m222 -455 c0 -65 -4 -88 -21 -115 -47 -77 -151 -99 -210 -46 -27 24 -33 37 -36 83 -8 109 54 155 215 158 l52 1 0 -81z" />
<path d="M2116 1276 c-82 -35 -120 -69 -161 -149 -52 -99 -55 -294 -5 -400 53 -113 138 -168 268 -175 101 -6 157 13 214 70 53 53 39 70 -33 38 -76 -32 -172 -26 -231 16 -88 62 -124 155 -115 299 11 172 59 242 179 260 74 11 82 5 118 -95 25 -70 36 -90 51 -90 23 0 51 87 53 163 1 49 1 50 -39 64 -22 8 -85 17 -140 19 -90 4 -106 2 -159 -20z" />
<path d="M4075 1284 c-86 -20 -115 -34 -115 -54 0 -13 12 -19 50 -24 l50 -7 -2 -281 -3 -280 -45 -17 c-32 -12 -45 -22 -45 -36 0 -19 8 -20 158 -23 l158 -3 -3 23 c-2 17 -14 27 -45 38 l-43 14 0 333 0 333 -27 -1 c-16 0 -55 -7 -88 -15z" />
<path d="M4623 1286 c-130 -43 -206 -142 -221 -290 -18 -178 28 -319 128 -389 29 -20 70 -41 89 -47 49 -14 155 -13 204 2 51 15 136 93 120 109 -9 9 -23 6 -55 -10 -79 -38 -195 -25 -260 29 -93 76 -123 274 -66 428 24 64 66 98 141 114 83 18 96 8 132 -96 41 -121 70 -117 95 14 22 116 24 107 -28 125 -64 22 -225 29 -279 11z" />
<path d="M5285 1287 c-65 -17 -102 -38 -143 -78 -72 -71 -108 -184 -99 -318 9 -151 68 -257 173 -311 43 -22 61 -25 159 -25 100 0 115 2 161 27 60 31 119 94 145 153 30 68 42 183 29 272 -21 137 -67 209 -164 256 -68 33 -184 44 -261 24z m129 -58 c56 -16 95 -47 121 -100 69 -136 51 -393 -33 -471 -55 -52 -97 -60 -173 -33 -57 20 -92 55 -120 119 -20 44 -23 68 -24 176 0 77 5 143 14 172 17 61 65 115 116 133 49 17 51 17 99 4z" />
<path d="M382 1263 c2 -9 21 -26 42 -37 37 -20 45 -34 188 -343 l148 -322 -19 -51 c-37 -96 -41 -100 -127 -100 -59 0 -76 -3 -81 -16 -8 -22 25 -124 42 -130 25 -10 87 18 125 56 60 60 112 179 239 545 l118 340 41 19 c27 13 42 26 42 38 0 16 -10 18 -120 18 -114 0 -120 -1 -120 -21 0 -13 11 -25 35 -35 19 -8 35 -17 35 -20 0 -3 -31 -104 -69 -223 -38 -119 -73 -232 -78 -251 l-10 -35 -11 40 c-6 23 -54 139 -106 258 l-94 218 39 16 c26 10 39 21 39 34 0 18 -10 19 -151 19 -136 0 -150 -2 -147 -17z" />
</g>
</svg>