<svg xmlns="http://www.w3.org/2000/svg" version="1.0" width="776.000000pt" height="158.000000pt" viewBox="0 0 776.000000 158.000000" preserveAspectRatio="xMidYMid meet">

<g transform="translate(0.000000,158.000000) scale(0.100000,-0.100000)" fill="#04325B" stroke="none">
<path d="M700 1310 c-219 -38 -397 -218 -431 -435 -9 -61 -5 -155 6 -155 3 0 66 60 141 134 l136 134 295 -295 296 -296 35 38 35 37 -229 229 -229 229 32 32 32 32 221 -222 c212 -213 221 -221 230 -197 34 85 44 64 -107 216 l-137 139 29 30 29 30 111 -110 c61 -60 113 -110 116 -110 8 0 0 96 -13 150 -33 139 -148 283 -270 340 -109 51 -222 68 -328 50z" />
<path d="M1987 1213 c-205 -77 -206 -296 -2 -427 17 -11 31 -19 33 -18 1 1 8 -2 15 -8 6 -6 44 -30 82 -54 92 -56 119 -95 111 -160 -3 -26 -10 -54 -17 -62 -39 -47 -146 -75 -207 -53 -22 8 -34 26 -63 97 -30 74 -39 87 -60 90 -16 2 -26 -2 -27 -10 -1 -21 -13 -71 -18 -80 -4 -6 -16 -86 -16 -108 -1 -22 13 -30 93 -50 208 -52 399 6 455 139 32 76 10 185 -48 237 -38 34 -142 104 -185 123 -12 5 -44 26 -71 46 -87 62 -101 143 -37 205 27 26 43 33 82 35 86 3 93 -2 128 -95 28 -73 36 -85 55 -85 22 0 25 8 42 95 10 52 17 101 16 109 -5 23 -86 41 -203 47 -90 4 -119 1 -158 -13z" />
<path d="M2813 1215 c-172 -47 -273 -195 -275 -405 0 -52 3 -115 7 -140 15 -88 63 -182 119 -230 29 -24 106 -72 106 -65 0 1 21 -3 47 -11 84 -25 209 -14 299 26 51 23 134 95 134 115 0 8 4 15 10 17 15 5 49 110 58 178 23 167 -17 331 -105 430 -73 82 -262 122 -400 85z m222 -97 c48 -34 91 -96 106 -152 25 -89 27 -263 4 -356 -3 -14 -7 -29 -9 -35 -12 -49 -82 -132 -120 -140 -99 -23 -194 7 -246 79 -49 66 -71 153 -71 281 1 207 61 328 176 356 50 12 117 -1 160 -33z" />
<path d="M3605 1223 c-90 -20 -167 -49 -177 -66 -13 -25 4 -37 54 -37 20 0 40 -5 43 -10 4 -6 5 -90 4 -188 -5 -333 4 -406 62 -487 38 -52 89 -75 185 -82 57 -4 79 -2 116 15 62 27 127 88 152 142 l21 45 3 -80 c3 -125 5 -129 54 -121 22 4 76 18 119 33 59 19 79 30 79 43 0 22 -19 30 -71 30 l-39 0 0 386 0 387 -47 -6 c-27 -3 -84 -16 -128 -29 -73 -21 -80 -25 -83 -50 -3 -26 -1 -28 37 -28 75 0 71 14 71 -239 l0 -226 -28 -60 c-68 -142 -205 -184 -298 -91 -50 50 -56 103 -52 436 l3 290 -30 -1 c-16 -1 -39 -3 -50 -6z" />
<path d="M5505 1211 c-105 -35 -195 -116 -204 -184 0 -4 -7 -20 -16 -36 -8 -16 -18 -60 -23 -99 -16 -134 2 -261 49 -354 42 -83 140 -156 234 -176 150 -32 319 14 370 101 26 43 8 50 -61 22 -75 -30 -151 -36 -228 -18 -114 26 -185 116 -204 256 l-9 67 263 0 c200 0 263 3 267 13 2 6 5 48 6 92 3 145 -46 243 -149 298 -48 25 -68 29 -150 32 -71 3 -108 -1 -145 -14z m211 -78 c40 -26 67 -98 72 -190 l4 -82 -187 0 -187 0 6 47 c23 181 98 261 230 245 21 -2 49 -11 62 -20z" />
<path d="M6230 1215 c-30 -7 -76 -20 -102 -30 -39 -14 -48 -21 -48 -41 0 -21 4 -24 39 -24 76 0 71 25 71 -340 l0 -327 -52 -19 c-40 -15 -54 -25 -56 -42 l-3 -22 200 0 201 0 0 23 c0 24 -25 37 -97 52 l-32 6 -3 257 -3 256 29 46 c27 43 60 73 81 76 6 1 56 2 112 3 l102 1 -5 28 c-2 15 -12 47 -20 71 l-17 43 -49 -5 c-28 -4 -69 -17 -92 -31 -49 -29 -110 -93 -121 -127 -7 -22 -9 -22 -15 -5 -3 11 -5 52 -3 93 l3 73 -32 -1 c-18 -1 -58 -7 -88 -14z" />
<path d="M7030 1216 c-116 -33 -180 -88 -236 -202 l-39 -78 0 -145 c1 -163 15 -221 78 -303 33 -43 116 -107 147 -113 10 -2 35 -8 56 -14 82 -23 223 -7 304 34 150 76 227 287 187 512 -31 170 -108 263 -252 305 -63 19 -186 21 -245 4z m200 -84 c48 -19 98 -86 121 -162 38 -127 28 -349 -21 -439 -52 -98 -156 -130 -266 -81 -97 42 -143 139 -151 315 -12 269 82 412 252 384 22 -3 51 -11 65 -17z" />
<path d="M4340 1198 c0 -22 14 -35 55 -54 l40 -19 161 -383 c89 -211 163 -385 166 -387 2 -3 20 0 39 5 29 8 39 18 57 60 12 28 22 54 22 59 0 5 6 22 14 38 22 44 34 74 52 128 9 28 28 79 44 115 35 82 42 102 45 116 2 6 10 27 18 45 8 19 30 73 48 120 33 85 35 86 82 103 39 14 47 21 47 41 l0 25 -139 0 c-77 0 -142 -4 -145 -9 -11 -18 5 -38 49 -59 44 -21 49 -34 25 -67 -4 -5 -15 -32 -23 -60 -19 -59 -55 -164 -64 -185 -3 -8 -7 -17 -8 -20 -1 -3 -5 -12 -8 -20 -18 -45 -77 -230 -77 -244 0 -30 -17 -16 -29 25 -7 23 -57 155 -110 295 -102 263 -102 264 -54 278 28 9 53 33 53 52 0 12 -31 14 -180 14 -137 0 -180 -3 -180 -12z" />
<path d="M414 749 l-127 -128 32 -64 c60 -124 180 -227 310 -268 86 -27 222 -29 306 -5 60 18 140 54 133 61 -1 2 -121 122 -265 268 l-262 263 -127 -127z" />
</g>
</svg>